<?xml version="1.0" encoding="UTF-8"?>
<svg id="Layer_1" xmlns="http://www.w3.org/2000/svg" version="1.1" xmlns:xlink="http://www.w3.org/1999/xlink" viewBox="0 0 65 66">
  <!-- Generator: Adobe Illustrator 30.1.0, SVG Export Plug-In . SVG Version: 2.1.1 Build 136)  -->
  <defs>
    <style>
      .st0 {
        fill: none;
      }

      .st1 {
        fill: #231f20;
      }

      .st2 {
        clip-path: url(#clippath);
      }
    </style>
    <clipPath id="clippath">
      <rect class="st0" y=".5" width="65" height="65"/>
    </clipPath>
  </defs>
  <g class="st2">
    <g>
      <path class="st1" d="M23.69,54.85c-3.02-1.22-5.78-3.07-8.12-5.49-.37-.38-.97-.39-1.35-.02-.38.37-.39.97-.02,1.35,4.84,5.01,11.34,7.76,18.3,7.76,14.03,0,25.45-11.42,25.45-25.45S46.53,7.55,32.5,7.55,7.05,18.97,7.05,33c0,5.04,1.47,9.91,4.26,14.09.29.44.88.56,1.32.26.44-.29.56-.88.26-1.32-2.58-3.87-3.94-8.38-3.94-13.04,0-1.11.08-2.2.23-3.27,1.84-.25,3.73.06,5.4.89l7.56,3.76c.06.47.16.93.28,1.38.14.51.66.81,1.17.67.51-.14.81-.66.67-1.17-.2-.73-.3-1.49-.3-2.26,0-4.71,3.83-8.54,8.54-8.54s8.54,3.83,8.54,8.54-3.83,8.54-8.54,8.54c-2.4,0-4.7-1.02-6.32-2.79-.35-.39-.96-.42-1.34-.06-.39.35-.42.96-.06,1.35.42.47.89.89,1.38,1.27l-.52,8.42c-.12,1.86-.8,3.66-1.94,5.13ZM25.33,25.42l-7.88-4.55c-.46-.26-1.04-.11-1.3.35-.26.46-.11,1.04.35,1.3l7.55,4.36c-.43.59-.8,1.23-1.1,1.91l-7.55-4.36c-.46-.26-1.04-.11-1.3.35-.26.46-.11,1.04.35,1.3l7.89,4.55c-.12.52-.2,1.05-.24,1.59l-6.65-3.31c-1.82-.91-3.87-1.3-5.89-1.14,1.06-4.68,3.53-8.84,6.93-12,.87,1.83,2.23,3.41,3.93,4.54l6.17,4.09c-.44.31-.86.65-1.25,1.01ZM28.45,23.37l-7-4.64c-1.56-1.03-2.77-2.53-3.47-4.25,4-3.15,9.05-5.02,14.52-5.02s10.49,1.87,14.49,5c-.7,1.73-1.92,3.22-3.48,4.25l-7.01,4.65c-1.23-.51-2.59-.8-4-.8s-2.8.29-4.05.82ZM38.4,24.39l6.17-4.09c1.7-1.13,3.07-2.71,3.94-4.55,3.41,3.17,5.88,7.33,6.95,12.01-2.03-.17-4.09.22-5.93,1.13l-6.62,3.29c-.04-.54-.13-1.07-.25-1.59l7.86-4.54c.46-.26.61-.85.35-1.3-.26-.46-.85-.61-1.3-.35l-7.53,4.35c-.3-.67-.67-1.31-1.1-1.9l7.53-4.35c.46-.26.61-.85.35-1.3-.26-.46-.85-.61-1.3-.35l-7.87,4.54c-.39-.37-.81-.71-1.25-1.01ZM42.85,34.34l7.52-3.74c1.68-.83,3.59-1.14,5.44-.88.15,1.07.23,2.17.23,3.28,0,9.87-6.11,18.34-14.74,21.84-1.14-1.47-1.82-3.26-1.93-5.12l-.52-8.43c2.15-1.65,3.65-4.12,4.01-6.95ZM29.5,43v9.11c0,.53.43.95.95.95s.95-.43.95-.95v-8.72c.36.04.73.06,1.1.06s.74-.02,1.1-.06v8.72c0,.53.43.95.95.95s.95-.43.95-.95v-9.11c.52-.16,1.02-.35,1.5-.58l.46,7.41c.13,2.03.81,4,1.96,5.67-2.19.68-4.52,1.04-6.93,1.04s-4.72-.35-6.93-1.03c1.15-1.67,1.84-3.64,1.97-5.68l.46-7.41c.48.23.99.43,1.5.58Z"/>
      <path class="st1" d="M32.5,39.34c3.49,0,6.34-2.84,6.34-6.34s-2.84-6.34-6.34-6.34-6.34,2.84-6.34,6.34,2.84,6.34,6.34,6.34ZM32.5,28.57c2.44,0,4.43,1.99,4.43,4.43s-1.99,4.43-4.43,4.43-4.43-1.99-4.43-4.43,1.99-4.43,4.43-4.43Z"/>
      <path class="st1" d="M61.37,18.07c-2.3-4.43-5.64-8.33-9.67-11.29-.42-.31-1.02-.22-1.33.2-.31.42-.22,1.02.2,1.33,3.8,2.79,6.95,6.46,9.11,10.63,2.26,4.37,3.41,9.1,3.41,14.06,0,8.17-3.18,15.86-8.96,21.63-5.78,5.78-13.46,8.96-21.63,8.96s-15.86-3.18-21.63-8.96c-5.78-5.78-8.96-13.46-8.96-21.63s3.18-15.86,8.96-21.63c5.78-5.78,13.46-8.96,21.63-8.96,5.03,0,10.02,1.25,14.43,3.61.46.25,1.04.07,1.29-.39.25-.46.07-1.04-.39-1.29-4.68-2.51-9.98-3.84-15.33-3.84C23.82.5,15.66,3.88,9.52,10.02,3.38,16.16,0,24.32,0,33s3.38,16.84,9.52,22.98c6.14,6.14,14.3,9.52,22.98,9.52s16.84-3.38,22.98-9.52c6.14-6.14,9.52-14.3,9.52-22.98,0-5.19-1.25-10.35-3.63-14.93Z"/>
    </g>
  </g>
</svg>