<?xml version="1.0" encoding="UTF-8"?>
<svg id="Layer_1" xmlns="http://www.w3.org/2000/svg" version="1.1"  viewBox="0 0 120 120">
  <!-- Generator: Adobe Illustrator 30.1.0, SVG Export Plug-In . SVG Version: 2.1.1 Build 136)  -->
  <defs>
    <style>
      .st0 {
        fill: #fff;
        fill-rule: evenodd;
      }

      .st1 {
        fill: none;
      }
    </style>
  </defs>
  <g id="Layer_x5F_1">
    <g id="_2565525638048">
      <path class="st0" d="M56.05,53.97c.85-.09,1.06,0,1.38-.74l2.23-5.19c.1-.24.18-.53.32-.73.46.96.87,1.97,1.31,2.92.45.97.87,1.99,1.28,2.96.32.74.44.69,1.33.79.65.07,1.32.12,1.94.19,1.29.14,2.59.23,3.88.37-.02.12-.01.07-.11.16-.04.04-.11.1-.16.14l-.88.78c-.41.36-.78.71-1.18,1.06-.81.7-1.55,1.39-2.35,2.1-.6.53-.4.81-.21,1.65l1.2,5.45-2.99-1.71c-.47-.27-2.7-1.65-3.08-1.64-.35.02-2.7,1.47-3.05,1.67-.82.47-2.26,1.36-2.97,1.73.08-.59.98-4.66,1.18-5.56.19-.86.35-1.1-.24-1.61l-4.69-4.23,5.84-.55h0ZM56.17,52.59c-.69.08-1.51.14-2.21.18-1.14.07-3.16.3-4.35.45-.88.11-1.63-.01-1.63.87,0,.47.35.58.57.83l3.81,3.4c.27.23.48.44.76.68.26.23.5.44.76.69-.02.35-1.32,6.03-1.45,6.65-.06.27-.23.87-.18,1.12.08.35.37.57.84.48.32-.07.65-.3.91-.45l6.02-3.46c.24.02,6.4,3.76,6.9,3.91.45.13.76-.13.84-.47.08-.33-.59-2.9-.69-3.34-.17-.75-.32-1.46-.5-2.22l-.49-2.23c.02-.07,1.2-1.1,1.37-1.26.75-.72,2.01-1.72,2.78-2.48l1.41-1.26c.22-.18.49-.43.35-.91-.11-.38-.39-.45-.82-.5-2.44-.25-4.85-.48-7.32-.65-.12-.15-.35-.73-.44-.96l-2.61-5.87c-.17-.34-.29-.65-.78-.67-.74-.03-.91.71-1.27,1.55-.28.66-.57,1.33-.86,1.98l-1.28,2.96c-.09.2-.34.84-.45.98h0Z"/>
      <path class="st0" d="M58.69,71.46c.34-.15.82,0,.96-.26.13-.24.2-.58.35-.84.16.25.24.55.38.82.11.2.19.18.43.2.18.01.38.02.53.07-.08.13-.21.21-.33.31-.06.05-.32.26-.34.29-.09.15.15.78.18,1.02-.23-.07-.73-.42-.87-.42-.18,0-.58.36-.84.41.03-.26.28-.79.16-1l-.62-.58h0ZM58.81,70.25c-.41,0-.92.06-1.34.11-.43.05-1.02.03-.86.6.07.25.65.7.88.91.09.08.1.12.19.19.15.12.27.22.41.36-.06.87-.79,2.12-.11,2.4.59.24,1.76-1,2.05-.96.04,0,.84.52.96.59.26.17.7.53,1.07.37.43-.18.27-.67.17-1.1-.09-.38-.19-.96-.3-1.28.1-.13.25-.23.38-.34.16-.13.25-.22.41-.35.19-.16.67-.5.72-.77.1-.6-.41-.55-.87-.6-.46-.05-.92-.11-1.38-.11-.13-.36-.31-.81-.46-1.15-.16-.38-.24-.93-.73-.92-.55.01-.78,1.25-1.18,2.07h0Z"/>
      <path class="st0" d="M49.75,71.4c.31,0,.86,0,1-.21.1-.15.23-.59.32-.74.04-.06.02-.04.06-.07.1.23.26.75.41.89.22.13.64.07.91.15,0,.07-.04.1-.11.16-.84.75-.52.24-.32,1.5-.14-.07-.82-.46-.92-.44-.19.02-.66.43-.93.44.56-1.35.06-1.04-.41-1.68h0ZM50.06,70.25c-.39.01-.98.05-1.39.1-.48.06-.97-.01-.96.54,0,.3.35.51.68.81.27.25.53.45.81.71-.03.76-.74,2.07-.13,2.38.48.25,1.29-.61,2.04-.95.24.09.94.58,1.21.75.16.1.43.31.69.27.87-.13.15-1.54-.01-2.52.19-.09.6-.48.8-.64.21-.18.66-.48.67-.82,0-.55-.49-.47-.96-.53-.43-.05-.97-.1-1.39-.1-.37-.85-.5-1.94-1.01-1.97-.46-.02-.53.47-.66.83-.13.36-.3.79-.4,1.13h0Z"/>
      <path class="st0" d="M67.61,71.43c.29-.03.83,0,.97-.22.14-.22.19-.6.35-.81.51.81,0,.93,1.32,1.02-.02.13-.52.54-.63.61-.03.32.12.79.21,1.05-.25-.04-.73-.41-.89-.42-.13-.01-.67.36-.83.43-.04-.31.24-.77.14-1.03-.06-.17-.5-.37-.64-.63h0ZM67.85,70.26c-.41,0-.99.06-1.4.1-.46.05-1,0-.93.56.03.28.4.55.69.79.24.2.59.55.83.7-.07.57-.76,2.08-.14,2.4.55.28,1.69-.96,2-.94.29.01,1.53,1.18,2.04.98.63-.25-.02-1.52-.14-2.42.39-.39,1.47-1.12,1.49-1.49.03-.57-.6-.53-.92-.55-.45-.04-.95-.11-1.4-.12-.05-.3-.28-.79-.38-1.1-.12-.36-.23-.87-.68-.86-.43,0-.51.51-.64.86-.14.37-.28.75-.41,1.11Z"/>
    </g>
    <rect class="st1" x="45" y="45" width="30" height="30"/>
  </g>
</svg>