<?xml version="1.0" encoding="UTF-8"?>
<svg id="Layer_1" xmlns="http://www.w3.org/2000/svg" version="1.1"  viewBox="0 0 120 120">
  <!-- Generator: Adobe Illustrator 30.1.0, SVG Export Plug-In . SVG Version: 2.1.1 Build 136)  -->
  <defs>
    <style>
      .st0 {
        fill: #D3AF37;
        fill-rule: evenodd;
      }

      .st1 {
        fill: none;
      }
    </style>
  </defs>
  <g id="Layer_x5F_1">
    <g id="_2565190269184">
      <path class="st0" d="M60.2,112.51l-5.01-6.43c-8.91-11.75-28.15-37.25-31.89-48.65C14.51,30.71,34.69,6.11,59.65,6.11c14.19,0,25.31,7.41,30.99,14.9,6.7,8.91,10.92,22.23,6.15,36.11-2.64,7.61-7.88,15.45-12.34,21.96-1.62,2.33-3.11,4.57-4.77,6.82-5.64,7.57-11.31,15.77-17.03,23.26-.63.83-2.13,2.6-2.44,3.35h0ZM58.54,1.42c-4.85.67-5.16.08-10.96,1.73-3.27.95-6.47,2.37-9.03,3.82-8.2,4.61-14.35,11.67-18.17,19.99-4.49,9.82-5.24,22.15-1.46,32.05,3.98,10.41,10.37,19.2,16.56,28.11,6.58,9.54,14.74,20.1,21.72,29.45,3.78,5.09,5.95-.16,9.74-5.28l10.84-14.63c5.2-7.25,11-14.98,15.73-22.59,8.44-13.6,12.18-23.1,8.75-39.62-2.48-11.98-11.87-23.22-22.79-28.42-2.96-1.42-5.87-2.56-9.42-3.43-2.6-.63-8.79-1.54-11.55-1.14h0l.04-.04Z"/>
      <path class="st0" d="M37.06,45.69c0-21.76,25.11-30.55,39.03-16.75,6.58,6.54,8.79,17.03,4.97,25.47-3.15,6.98-10.41,13.72-20.66,13.72-12.81,0-23.3-9.86-23.3-22.43h-.04ZM57.83,17.7c-8.79.95-14.51,4.42-18.57,9.15-3.94,4.57-7.77,11.83-6.9,20.5.79,8,3.67,13.36,9.15,18.49,4.3,4.02,12.3,7.61,20.77,6.9,24.6-2.13,34.02-32.13,16.08-48.17-4.42-3.94-12.06-7.77-20.5-6.86h-.04Z"/>
      <path class="st0" d="M57.56,30.75v14.43c0,2.25.51,3.35,2.84,3.35h11.59c3.07,0,3.47-4.57,0-4.73-3.07-.16-6.58,0-9.7,0v-12.14c0-1.93-.16-3.51-1.93-3.86-2.05-.39-2.8,1.1-2.8,2.96h0Z"/>
    </g>
    <rect class="st1" x=".87" y=".87" width="118.26" height="118.26"/>
  </g>
</svg>