<?xml version="1.0" encoding="UTF-8"?>
<svg id="Layer_1" xmlns="http://www.w3.org/2000/svg" version="1.1" viewBox="0 0 120 120">
  <!-- Generator: Adobe Illustrator 30.1.0, SVG Export Plug-In . SVG Version: 2.1.1 Build 136)  -->
  <defs>
    <style>
      .st0 {
        fill: #fff;
        fill-rule: evenodd;
      }

      .st1 {
        fill: none;
      }
    </style>
  </defs>
  <g id="Layer_x5F_1">
    <g id="_2565526333360">
      <path class="st0" d="M58.26,56.09c1.64-.3,2.91.93,3.13,2.24.28,1.63-.9,2.9-2.22,3.12-1.68.29-2.97-.92-3.16-2.25-.22-1.54.74-2.83,2.25-3.1ZM51.5,63.75c-.28-.25-.74-1.24-.93-1.67-.25-.6-.45-1.28-.56-1.99-.11-.75-.13-1.65-.03-2.41.06-.48.3-1.74.51-2.02.66.35,1.33.77,2.06,1.11.3.14,1.93.96,2.06,1.13.04.13-.03.9-.02,1.16.06,1.33.66,1.22,0,1.77-.47.39-1.38,1.3-1.85,1.75l-.62.61c-.2.18-.42.43-.62.57h0ZM61.92,56.18c-.06-.09-.45-.47-.51-.52-1.41-1.16-1.83-.48-1.83-1.3,0-1.35.05-2.87-.03-4.2,1.44.06,2.99.76,3.92,1.35,1.1.69,1.93,1.54,2.61,2.62-.16.21-1.79.96-2.02,1.07-.38.2-1.81.98-2.14.98ZM51.27,54.18c.16-.38.9-1.24,1.16-1.49,1.27-1.24,3.42-2.47,5.35-2.52v4.55c-.18.14-.63.25-.9.38-1.76.88-.84,1.49-2.3.73l-3.32-1.65h0ZM60.77,67.16c-.39.05-.75.14-1.16.19-2.52.27-4.73-.45-6.65-2.01-.16-.13-.22-.21-.36-.31l2.95-2.67c.66-.57.49-.45,1.01-.12,1.28.82,3.27.8,4.4-.08.5-.39.39-.21,1.28.55l1.54,1.35c-.05-.55,0-1.19.09-1.72.11-.67.09-.37-.61-1.06-.19-.18-.29-.28-.47-.44-.73-.67.02-.4.02-2.07,0-1.24-.63-.59,1.64-1.82.38-.2.79-.44,1.19-.63.28-.14,1.02-.59,1.22-.64.21.34.49,1.68.55,2.19.09-.02,1.15-.31,1.17-.32-.11-.45-.15-.87-.33-1.56-.63-2.37-2.17-4.2-4.14-5.52-2.7-1.81-6.34-1.97-9.25-.82-5.95,2.35-8.09,9.92-4.15,15.08,1.01,1.33,2.5,2.6,4.45,3.29.98.35,2.03.58,3.23.63,1.08.05.89.01,1.4-.5.34-.33.7-.63.99-1h0Z"/>
      <path class="st0" d="M57.65,72.22c0-.45,0-.82.13-1.21-2.72-.25-4.85-1.14-6.52-2.41-1.66-1.27-2.98-2.74-3.94-4.99-3.11-7.26,1.45-15.05,8.2-16.67,7.35-1.77,14.68,2.93,15.46,10.6.11.04,1.17.32,1.25.33-.3-1.76-.19-2.15-.9-4-2.39-6.22-9.07-9.68-15.82-8.17-2.04.46-4.21,1.52-5.73,2.88-.48.43-.83.76-1.26,1.25-1.42,1.6-2.43,3.51-2.98,5.68-1.19,4.72.29,9.61,3.59,12.87,2.17,2.14,4.97,3.5,8.54,3.85h0Z"/>
      <path class="st0" d="M73.51,63.74c-.05,1.8-1.9,3.44-3.83,3.31-1.53-.1-.86-.52-2.75,1.38l-4.3,4.31c-1.72,1.68-3.26-.68-2.28-1.78l5.76-5.77c.34-.35.21-.61.13-1.12-.07-.43-.05-.92.03-1.36.15-.8.57-1.46,1.01-1.86.36-.33,1.29-.91,2.01-.88-1.47,1.62-1.4.67-.88,3.34.09.48.12.95.46,1.18.24.16,2.22.54,2.67.61.61.1.83-.28,1.09-.54.21-.21.64-.71.87-.83ZM69.11,58.59c-2.59.38-4.3,2.26-4.28,4.93.01,1.4.51.57-1.68,2.77-.78.78-1.52,1.53-2.3,2.3-.76.75-1.75,1.57-2.01,2.54-.74,2.8,2.56,4.74,4.64,2.64.77-.78,1.52-1.53,2.29-2.31.76-.77,1.51-1.51,2.28-2.28,1.03-1.03.67-.84,1.4-.77,3.13.27,5.9-2.38,5.36-5.92-.05-.36-.08-.63-.33-.81-.65-.48-1.28.48-1.99,1.19-1.13,1.12-.58.97-2.22.64-.7-.14-.44.11-.79-1.53-.09-.4.15-.49.37-.71.3-.3,1.55-1.51,1.65-1.81.38-1.13-1.83-.96-2.4-.87h0Z"/>
    </g>
    <rect class="st1" x="45" y="45" width="30" height="30"/>
  </g>
</svg>