<?xml version="1.0" encoding="UTF-8"?>
<svg id="Layer_1" xmlns="http://www.w3.org/2000/svg" version="1.1" viewBox="0 0 120 120">
  <!-- Generator: Adobe Illustrator 30.1.0, SVG Export Plug-In . SVG Version: 2.1.1 Build 136)  -->
  <defs>
    <style>
      .st0 {
        fill: #fff;
        fill-rule: evenodd;
      }

      .st1 {
        fill: none;
      }
    </style>
  </defs>
  <g id="Layer_x5F_1">
    <g id="_2565576933584">
      <path class="st0" d="M56.07,73.09c-.23-.22-1.27-2.13-1.37-2.24-.29-.34-1.02-.11-1.48-.03-.5.09-1.05.2-1.55.26.1-.31.75-1.67.93-2.07.15-.34.83-1.89.96-2.08.1.09.25.4.32.54.11.2.23.39.35.55.97,1.22,2.61,1.32,3.92.68-.04.14-.19.4-.25.53,0,0-1.85,3.86-1.85,3.86ZM61.82,68.7c.94.38,1.89.63,2.93.14,1.28-.61,1.36-1.53,1.68-1.9.13.25,1.81,3.82,1.9,4.12-.53-.08-1.06-.17-1.58-.26-.55-.09-1.14-.29-1.44.1-.2.25-.99,1.76-1.33,2.22l-2.14-4.43h0ZM59.72,46.26c1.53-.32,1.9,1.63,4.15,1.54.6-.03,1.53-.55,2.32.15.84.74.51,1.15.93,1.95.34.66.79,1.1,1.48,1.4.74.33,1.27.51,1.58,1.3.48,1.22-.61,2.08.18,3.64.28.56,1.59,1.59.61,3.02-.23.34-.47.46-.71.73-.48.53-.81,1.24-.84,2.04-.02.46.12.85.04,1.31-.07.42-.31.68-.55.9-.18.16-.63.48-.88.56-.42.13-.72.14-1.12.33-1.44.68-1.54,1.8-1.99,2.31-.4.45-1.31.85-2.16.56-1.22-.41-.64-.42-2.34-.49-2.92-.11-2.6.57-3.74.58-1.65,0-1.85-1.29-2.36-1.96-1.23-1.63-2.71-.89-3.54-2.21-.46-.74-.09-1.54-.3-2.49-.23-1.01-.55-1.24-1.1-1.77-.47-.46-.93-1.14-.54-2.08.29-.71.77-.92,1-1.87.33-1.35-.18-1.86-.16-2.53.03-.87.61-1.39,1.28-1.61,2.18-.7,1.98-2.46,2.52-3.23,1.09-1.55,2.45.18,4.48-.94.72-.4.81-.9,1.75-1.1h0ZM52.75,66.11c-.06.23-.37.82-.5,1.1-.16.36-.32.74-.49,1.11-.34.76-.67,1.5-1.02,2.23-.11.24-.47.86-.5,1.11-.06.64.6.59.98.52.47-.08,2.5-.4,2.84-.41.12.33.48.86.66,1.19.23.41.44.76.68,1.17.17.3.49,1.05,1.01.62.23-.19,1.04-2.07,1.23-2.47.21-.46.4-.8.6-1.25.38-.84.8-1.72,1.22-2.52h1.09c.18.44.91,1.85,1.2,2.49.14.31,1.69,3.59,1.86,3.73.55.46.85-.25,1.03-.58l1.02-1.77c.12-.21.21-.41.35-.6l2.79.42c.52.08,1.03.04,1-.54,0-.11-2.38-5.17-2.55-5.54.85-.32.99-.14,1.82-.65.52-.32.92-.67,1.21-1.25.8-1.56-.52-2.28,1.08-3.77.89-.83,1.4-2.12.71-3.59-.25-.54-.78-.98-.87-1.6-.18-1.24.97-2.16-.47-3.93-.91-1.11-2.29-.71-2.73-2.19-.27-.9-.19-1.1-.76-1.71-1.5-1.6-2.85-.69-3.73-.78-.93-.09-1.14-.44-1.62-.85-.41-.35-1.11-.67-1.83-.68-.86,0-1.39.2-1.87.6-.51.43-.64.77-1.56.91-.98.14-2.37-.79-3.84.76-1.07,1.14-.41,2.37-1.95,2.98-.61.24-1.05.37-1.54.93-.67.76-.96,1.77-.57,2.81.47,1.23-.43,2.14-.76,2.73-.71,1.29-.33,2.56.67,3.56,1.61,1.62.31,2.31,1.06,3.78.8,1.56,1.91,1.54,3.03,1.94h0Z"/>
      <path class="st0" d="M52.38,58.14c-.21-2.34.81-4.51,1.9-5.69,1.34-1.46,2.9-2.34,5.07-2.58,2.33-.26,4.51.8,5.7,1.87,3.2,2.9,3.54,7.49.72,10.75-.98,1.14-2.88,2.41-5.06,2.58-4.53.35-7.96-2.96-8.33-6.94h0ZM59.42,48.81c-2.34.2-4.39,1.21-5.84,2.86-1.29,1.47-2.46,3.57-2.27,6.43.24,3.55,2.65,6.32,5.58,7.48,4.45,1.77,9.51-.57,11.25-4.98,1.4-3.54.2-7.28-2.33-9.57-1.39-1.25-3.69-2.45-6.39-2.22h0Z"/>
      <path class="st0" d="M60.1,61.06c-1.38,0-2.39-.63-3.03-1.57-.12-.18-.22-.4-.34-.57-.29-.42-1.03-.19-.98.37.04.52,1.07,1.58,1.57,1.96,1.54,1.17,3.75,1.16,5.37.02.36-.25.64-.52.91-.86.15-.18.66-.87.68-1.13.05-.56-.69-.8-.99-.37-.11.16-.19.34-.32.54-.56.84-1.62,1.6-2.88,1.6h0Z"/>
      <path class="st0" d="M62.53,54.6c-1.32.31-.79,2.06.34,1.84,1.24-.24.83-2.11-.34-1.84Z"/>
      <path class="st0" d="M57.19,54.6c-1.35.33-.77,2.06.35,1.84.47-.09.85-.53.74-1.13-.08-.43-.55-.85-1.09-.71h0Z"/>
    </g>
    <rect class="st1" x="45" y="45" width="30" height="30"/>
  </g>
</svg>