<?xml version="1.0" encoding="UTF-8"?>
<svg id="Layer_1" xmlns="http://www.w3.org/2000/svg" version="1.1" viewBox="0 0 120 120">
  <!-- Generator: Adobe Illustrator 30.1.0, SVG Export Plug-In . SVG Version: 2.1.1 Build 136)  -->
  <defs>
    <style>
      .st0 {
        fill: #D3AF37;
        fill-rule: evenodd;
      }

      .st1 {
        fill: none;
      }
    </style>
  </defs>
  <g id="Layer_x5F_1">
    <g id="_2565525638048">
      <path class="st0" d="M44.38,36.15c3.36-.36,4.19,0,5.46-2.93l8.82-20.53c.4-.95.71-2.1,1.27-2.89,1.82,3.8,3.44,7.79,5.18,11.55,1.78,3.84,3.44,7.87,5.06,11.71,1.27,2.93,1.74,2.73,5.26,3.12,2.57.28,5.22.47,7.67.75,5.1.55,10.24.91,15.35,1.46-.08.47-.04.28-.44.63-.16.16-.44.4-.63.55l-3.48,3.09c-1.62,1.42-3.09,2.81-4.67,4.19-3.2,2.77-6.13,5.5-9.29,8.31-2.37,2.1-1.58,3.2-.83,6.53l4.75,21.56-11.83-6.76c-1.86-1.07-10.68-6.53-12.18-6.49-1.38.08-10.68,5.81-12.06,6.61-3.24,1.86-8.94,5.38-11.75,6.84.32-2.33,3.88-18.43,4.67-21.99.75-3.4,1.38-4.35-.95-6.37l-18.55-16.73,23.1-2.18h0l.08-.04ZM44.85,30.69c-2.73.32-5.97.55-8.74.71-4.51.28-12.5,1.19-17.21,1.78-3.48.44-6.45-.04-6.45,3.44,0,1.86,1.38,2.29,2.25,3.28l15.07,13.45c1.07.91,1.9,1.74,3.01,2.69,1.03.91,1.98,1.74,3.01,2.73-.08,1.38-5.22,23.85-5.74,26.3-.24,1.07-.91,3.44-.71,4.43.32,1.38,1.46,2.25,3.32,1.9,1.27-.28,2.57-1.19,3.6-1.78l23.81-13.69c.95.08,25.31,14.87,27.29,15.47,1.78.51,3.01-.51,3.32-1.86.32-1.31-2.33-11.47-2.73-13.21-.67-2.97-1.27-5.77-1.98-8.78l-1.94-8.82c.08-.28,4.75-4.35,5.42-4.98,2.97-2.85,7.95-6.8,11-9.81l5.58-4.98c.87-.71,1.94-1.7,1.38-3.6-.44-1.5-1.54-1.78-3.24-1.98-9.65-.99-19.18-1.9-28.95-2.57-.47-.59-1.38-2.89-1.74-3.8L63.16,3.8c-.67-1.34-1.15-2.57-3.09-2.65-2.93-.12-3.6,2.81-5.02,6.13-1.11,2.61-2.25,5.26-3.4,7.83l-5.06,11.71c-.36.79-1.34,3.32-1.78,3.88h.04Z"/>
      <path class="st0" d="M54.82,105.33c1.34-.59,3.24,0,3.8-1.03.51-.95.79-2.29,1.38-3.32.63.99.95,2.18,1.5,3.24.44.79.75.71,1.7.79.71.04,1.5.08,2.1.28-.32.51-.83.83-1.31,1.23-.24.2-1.27,1.03-1.34,1.15-.36.59.59,3.09.71,4.03-.91-.28-2.89-1.66-3.44-1.66-.71,0-2.29,1.42-3.32,1.62.12-1.03,1.11-3.12.63-3.96l-2.45-2.29h0l.04-.08ZM55.29,100.54c-1.62,0-3.64.24-5.3.44-1.7.2-4.03.12-3.4,2.37.28.99,2.57,2.77,3.48,3.6.36.32.4.47.75.75.59.47,1.07.87,1.62,1.42-.24,3.44-3.12,8.39-.44,9.49,2.33.95,6.96-3.96,8.11-3.8.16,0,3.32,2.06,3.8,2.33,1.03.67,2.77,2.1,4.23,1.46,1.7-.71,1.07-2.65.67-4.35-.36-1.5-.75-3.8-1.19-5.06.4-.51.99-.91,1.5-1.34.63-.51.99-.87,1.62-1.38.75-.63,2.65-1.98,2.85-3.05.4-2.37-1.62-2.18-3.44-2.37-1.82-.2-3.64-.44-5.46-.44-.51-1.42-1.23-3.2-1.82-4.55-.63-1.5-.95-3.68-2.89-3.64-2.18.04-3.09,4.94-4.67,8.19h0l-.04-.08Z"/>
      <path class="st0" d="M19.46,105.09c1.23,0,3.4,0,3.96-.83.4-.59.91-2.33,1.27-2.93.16-.24.08-.16.24-.28.4.91,1.03,2.97,1.62,3.52.87.51,2.53.28,3.6.59,0,.28-.16.4-.44.63-3.32,2.97-2.06.95-1.27,5.93-.55-.28-3.24-1.82-3.64-1.74-.75.08-2.61,1.7-3.68,1.74,2.21-5.34.24-4.11-1.62-6.64h-.04ZM20.68,100.54c-1.54.04-3.88.2-5.5.4-1.9.24-3.84-.04-3.8,2.14,0,1.19,1.38,2.02,2.69,3.2,1.07.99,2.1,1.78,3.2,2.81-.12,3.01-2.93,8.19-.51,9.41,1.9.99,5.1-2.41,8.07-3.76.95.36,3.72,2.29,4.79,2.97.63.4,1.7,1.23,2.73,1.07,3.44-.51.59-6.09-.04-9.97.75-.36,2.37-1.9,3.16-2.53.83-.71,2.61-1.9,2.65-3.24,0-2.18-1.94-1.86-3.8-2.1-1.7-.2-3.84-.4-5.5-.4-1.46-3.36-1.98-7.67-3.99-7.79-1.82-.08-2.1,1.86-2.61,3.28s-1.19,3.12-1.58,4.47h0l.04.04Z"/>
      <path class="st0" d="M90.1,105.21c1.15-.12,3.28,0,3.84-.87s.75-2.37,1.38-3.2c2.02,3.2,0,3.68,5.22,4.03-.08.51-2.06,2.14-2.49,2.41-.12,1.27.47,3.12.83,4.15-.99-.16-2.89-1.62-3.52-1.66-.51-.04-2.65,1.42-3.28,1.7-.16-1.23.95-3.05.55-4.07-.24-.67-1.98-1.46-2.53-2.49h0ZM91.05,100.58c-1.62,0-3.92.24-5.54.4-1.82.2-3.96,0-3.68,2.21.12,1.11,1.58,2.18,2.73,3.12.95.79,2.33,2.18,3.28,2.77-.28,2.25-3.01,8.23-.55,9.49,2.18,1.11,6.68-3.8,7.91-3.72,1.15.04,6.05,4.67,8.07,3.88,2.49-.99-.08-6.01-.55-9.57,1.54-1.54,5.81-4.43,5.89-5.89.12-2.25-2.37-2.1-3.64-2.18-1.78-.16-3.76-.44-5.54-.47-.2-1.19-1.11-3.12-1.5-4.35-.47-1.42-.91-3.44-2.69-3.4-1.7,0-2.02,2.02-2.53,3.4-.55,1.46-1.11,2.97-1.62,4.39l-.04-.08Z"/>
    </g>
    <rect class="st1" x=".67" y=".67" width="118.66" height="118.66"/>
  </g>
</svg>