<?xml version="1.0" encoding="UTF-8"?>
<svg id="Layer_1" xmlns="http://www.w3.org/2000/svg" version="1.1"  viewBox="0 0 120 120">
  <!-- Generator: Adobe Illustrator 30.1.0, SVG Export Plug-In . SVG Version: 2.1.1 Build 136)  -->
  <defs>
    <style>
      .st0 {
        fill: #fff;
        fill-rule: evenodd;
      }

      .st1 {
        fill: none;
      }
    </style>
  </defs>
  <g id="Layer_x5F_1">
    <g id="_2565576933584">
      <path class="st0" d="M44.3,112.29c-.92-.88-5.07-8.51-5.47-8.95-1.16-1.36-4.07-.44-5.91-.12-2,.36-4.19.8-6.19,1.04.4-1.24,3-6.67,3.72-8.27.6-1.36,3.32-7.55,3.84-8.31.4.36,1,1.6,1.28,2.16.44.8.92,1.56,1.4,2.2,3.88,4.87,10.43,5.27,15.66,2.72-.16.56-.76,1.6-1,2.12l-7.39,15.42h.08ZM67.27,94.76c3.76,1.52,7.55,2.52,11.7.56,5.11-2.44,5.43-6.11,6.71-7.59.52,1,7.23,15.26,7.59,16.46-2.12-.32-4.23-.68-6.31-1.04-2.2-.36-4.55-1.16-5.75.4-.8,1-3.95,7.03-5.31,8.87l-8.55-17.7h0l-.08.04ZM58.88,5.11c6.11-1.28,7.59,6.51,16.58,6.15,2.4-.12,6.11-2.2,9.27.6,3.36,2.96,2.04,4.59,3.72,7.79,1.36,2.64,3.16,4.39,5.91,5.59,2.96,1.32,5.07,2.04,6.31,5.19,1.92,4.87-2.44,8.31.72,14.54,1.12,2.24,6.35,6.35,2.44,12.06-.92,1.36-1.88,1.84-2.84,2.92-1.92,2.12-3.24,4.95-3.36,8.15-.08,1.84.48,3.4.16,5.23-.28,1.68-1.24,2.72-2.2,3.6-.72.64-2.52,1.92-3.52,2.24-1.68.52-2.88.56-4.47,1.32-5.75,2.72-6.15,7.19-7.95,9.23-1.6,1.8-5.23,3.4-8.63,2.24-4.87-1.64-2.56-1.68-9.35-1.96-11.67-.44-10.39,2.28-14.94,2.32-6.59,0-7.39-5.15-9.43-7.83-4.91-6.51-10.83-3.56-14.14-8.83-1.84-2.96-.36-6.15-1.2-9.95-.92-4.03-2.2-4.95-4.39-7.07-1.88-1.84-3.72-4.55-2.16-8.31,1.16-2.84,3.08-3.68,3.99-7.47,1.32-5.39-.72-7.43-.64-10.11.12-3.48,2.44-5.55,5.11-6.43,8.71-2.8,7.91-9.83,10.07-12.9,4.35-6.19,9.79.72,17.9-3.76,2.88-1.6,3.24-3.6,6.99-4.39h0l.04-.16ZM31.04,84.41c-.24.92-1.48,3.28-2,4.39-.64,1.44-1.28,2.96-1.96,4.43-1.36,3.04-2.68,5.99-4.07,8.91-.44.96-1.88,3.44-2,4.43-.24,2.56,2.4,2.36,3.91,2.08,1.88-.32,9.99-1.6,11.35-1.64.48,1.32,1.92,3.44,2.64,4.75.92,1.64,1.76,3.04,2.72,4.67.68,1.2,1.96,4.19,4.03,2.48.92-.76,4.15-8.27,4.91-9.87.84-1.84,1.6-3.2,2.4-4.99,1.52-3.36,3.2-6.87,4.87-10.07h4.35c.72,1.76,3.64,7.39,4.79,9.95.56,1.24,6.75,14.34,7.43,14.9,2.2,1.84,3.4-1,4.11-2.32l4.07-7.07c.48-.84.84-1.64,1.4-2.4l11.15,1.68c2.08.32,4.11.16,3.99-2.16,0-.44-9.51-20.65-10.19-22.13,3.4-1.28,3.95-.56,7.27-2.6,2.08-1.28,3.68-2.68,4.83-4.99,3.2-6.23-2.08-9.11,4.31-15.06,3.56-3.32,5.59-8.47,2.84-14.34-1-2.16-3.12-3.91-3.48-6.39-.72-4.95,3.88-8.63-1.88-15.7-3.64-4.43-9.15-2.84-10.91-8.75-1.08-3.6-.76-4.39-3.04-6.83-5.99-6.39-11.39-2.76-14.9-3.12-3.72-.36-4.55-1.76-6.47-3.4-1.64-1.4-4.43-2.68-7.31-2.72-3.44,0-5.55.8-7.47,2.4-2.04,1.72-2.56,3.08-6.23,3.64-3.91.56-9.47-3.16-15.34,3.04-4.27,4.55-1.64,9.47-7.79,11.9-2.44.96-4.19,1.48-6.15,3.72-2.68,3.04-3.84,7.07-2.28,11.23,1.88,4.91-1.72,8.55-3.04,10.91-2.84,5.15-1.32,10.23,2.68,14.22,6.43,6.47,1.24,9.23,4.23,15.1,3.2,6.23,7.63,6.15,12.1,7.75h0l.08-.04Z"/>
      <path class="st0" d="M29.56,52.57c-.84-9.35,3.24-18.02,7.59-22.73,5.35-5.83,11.59-9.35,20.25-10.31,9.31-1.04,18.02,3.2,22.77,7.47,12.78,11.59,14.14,29.92,2.88,42.94-3.91,4.55-11.51,9.63-20.21,10.31-18.1,1.4-31.8-11.82-33.28-27.72h0v.04ZM57.68,15.3c-9.35.8-17.54,4.83-23.33,11.43-5.15,5.87-9.83,14.26-9.07,25.69.96,14.18,10.59,25.25,22.29,29.88,17.78,7.07,37.99-2.28,44.94-19.89,5.59-14.14.8-29.08-9.31-38.23-5.55-4.99-14.74-9.79-25.53-8.87h0Z"/>
      <path class="st0" d="M60.4,64.23c-5.51,0-9.55-2.52-12.1-6.27-.48-.72-.88-1.6-1.36-2.28-1.16-1.68-4.11-.76-3.91,1.48.16,2.08,4.27,6.31,6.27,7.83,6.15,4.67,14.98,4.63,21.45.08,1.44-1,2.56-2.08,3.64-3.44.6-.72,2.64-3.48,2.72-4.51.2-2.24-2.76-3.2-3.95-1.48-.44.64-.76,1.36-1.28,2.16-2.24,3.36-6.47,6.39-11.51,6.39h0l.04.04Z"/>
      <path class="st0" d="M70.11,38.43c-5.27,1.24-3.16,8.23,1.36,7.35,4.95-.96,3.32-8.43-1.36-7.35Z"/>
      <path class="st0" d="M48.77,38.43c-5.39,1.32-3.08,8.23,1.4,7.35,1.88-.36,3.4-2.12,2.96-4.51-.32-1.72-2.2-3.4-4.35-2.84h0Z"/>
    </g>
    <rect class="st1" x=".08" y=".08" width="80" 119.85" height="80" 119.85"/>
  </g>
</svg>