<?xml version="1.0" encoding="UTF-8"?>
<svg id="Layer_1" xmlns="http://www.w3.org/2000/svg" version="1.1" viewBox="0 0 120 120">
  <!-- Generator: Adobe Illustrator 30.1.0, SVG Export Plug-In . SVG Version: 2.1.1 Build 136)  -->
  <defs>
    <style>
      .st0 {
        fill: #fff;
        fill-rule: evenodd;
      }

      .st1 {
        fill: none;
      }
    </style>
  </defs>
  <g id="Layer_x5F_1">
    <g id="_2565190269184">
      <path class="st0" d="M60.05,73.32l-1.27-1.63c-2.26-2.98-7.14-9.45-8.09-12.34-2.23-6.78,2.89-13.02,9.22-13.02,3.6,0,6.42,1.88,7.86,3.78,1.7,2.26,2.77,5.64,1.56,9.16-.67,1.93-2,3.92-3.13,5.57-.41.59-.79,1.16-1.21,1.73-1.43,1.92-2.87,4-4.32,5.9-.16.21-.54.66-.62.85h0ZM59.63,45.14c-1.23.17-1.31.02-2.78.44-.83.24-1.64.6-2.29.97-2.08,1.17-3.64,2.96-4.61,5.07-1.14,2.49-1.33,5.62-.37,8.13,1.01,2.64,2.63,4.87,4.2,7.13,1.67,2.42,3.74,5.1,5.51,7.47.96,1.29,1.51-.04,2.47-1.34l2.75-3.71c1.32-1.84,2.79-3.8,3.99-5.73,2.14-3.45,3.09-5.86,2.22-10.05-.63-3.04-3.01-5.89-5.78-7.21-.75-.36-1.49-.65-2.39-.87-.66-.16-2.23-.39-2.93-.29h0Z"/>
      <path class="st0" d="M54.18,56.37c0-5.52,6.37-7.75,9.9-4.25,1.67,1.66,2.23,4.32,1.26,6.46-.8,1.77-2.64,3.48-5.24,3.48-3.25,0-5.91-2.5-5.91-5.69h0ZM59.45,49.27c-2.23.24-3.68,1.12-4.71,2.32-1,1.16-1.97,3-1.75,5.2.2,2.03.93,3.39,2.32,4.69,1.09,1.02,3.12,1.93,5.27,1.75,6.24-.54,8.63-8.15,4.08-12.22-1.12-1-3.06-1.97-5.2-1.74h0Z"/>
      <path class="st0" d="M59.38,52.58v3.66c0,.57.13.85.72.85h2.94c.78,0,.88-1.16,0-1.2-.78-.04-1.67,0-2.46,0v-3.08c0-.49-.04-.89-.49-.98-.52-.1-.71.28-.71.75h0Z"/>
    </g>
    <rect class="st1" x="45" y="45" width="30" height="30"/>
  </g>
</svg>