<?xml version="1.0" encoding="UTF-8"?>
<svg id="Layer_1" xmlns="http://www.w3.org/2000/svg" version="1.1" viewBox="0 0 120 120">
  <!-- Generator: Adobe Illustrator 30.1.0, SVG Export Plug-In . SVG Version: 2.1.1 Build 136)  -->
  <defs>
    <style>
      .st0 {
        fill: #D3AF37;
        fill-rule: evenodd;
      }

      .st1 {
        fill: none;
      }
    </style>
  </defs>
  <g id="Layer_x5F_1">
    <g id="_2565526333360">
      <path class="st0" d="M53.09,44.48c6.51-1.19,11.55,3.69,12.42,8.89,1.11,6.47-3.57,11.51-8.81,12.38-6.67,1.15-11.79-3.65-12.54-8.93-.87-6.11,2.94-11.23,8.93-12.3v-.04ZM26.27,74.88c-1.11-.99-2.94-4.92-3.69-6.63-.99-2.38-1.79-5.08-2.22-7.9-.44-2.98-.52-6.55-.12-9.56.24-1.9,1.19-6.91,2.02-8.02,2.62,1.39,5.28,3.06,8.18,4.41,1.19.56,7.66,3.81,8.18,4.48.16.52-.12,3.57-.08,4.6.24,5.28,2.62,4.84,0,7.02-1.87,1.55-5.48,5.16-7.34,6.94l-2.46,2.42c-.79.71-1.67,1.71-2.46,2.26h0v-.04ZM67.62,44.84c-.24-.36-1.79-1.87-2.02-2.06-5.6-4.6-7.26-1.9-7.26-5.16,0-5.36.2-11.39-.12-16.67,5.71.24,11.87,3.02,15.56,5.36,4.37,2.74,7.66,6.11,10.36,10.4-.63.83-7.1,3.81-8.02,4.25-1.51.79-7.18,3.89-8.49,3.89ZM25.36,36.9c.63-1.51,3.57-4.92,4.6-5.91,5.04-4.92,13.57-9.8,21.23-10v18.06c-.71.56-2.5.99-3.57,1.51-6.98,3.49-3.33,5.91-9.13,2.9l-13.18-6.55h.04ZM63.06,88.41c-1.55.2-2.98.56-4.6.75-10,1.07-18.77-1.79-26.39-7.98-.63-.52-.87-.83-1.43-1.23l11.71-10.6c2.62-2.26,1.94-1.79,4.01-.48,5.08,3.25,12.98,3.17,17.46-.32,1.98-1.55,1.55-.83,5.08,2.18l6.11,5.36c-.2-2.18,0-4.72.36-6.83.44-2.66.36-1.47-2.42-4.21-.75-.71-1.15-1.11-1.87-1.75-2.9-2.66.08-1.59.08-8.21,0-4.92-2.5-2.34,6.51-7.22,1.51-.79,3.14-1.75,4.72-2.5,1.11-.56,4.05-2.34,4.84-2.54.83,1.35,1.94,6.67,2.18,8.69.36-.08,4.56-1.23,4.64-1.27-.44-1.79-.6-3.45-1.31-6.19-2.5-9.41-8.61-16.67-16.43-21.91-10.71-7.18-25.16-7.82-36.71-3.25C15.99,28.25,7.5,58.29,23.13,78.77c4.01,5.28,9.92,10.32,17.66,13.06,3.89,1.39,8.06,2.3,12.82,2.5,4.29.2,3.53.04,5.56-1.98,1.35-1.31,2.78-2.5,3.93-3.97h0l-.04.04Z"/>
      <path class="st0" d="M50.67,108.5c0-1.79,0-3.25.52-4.8-10.79-.99-19.25-4.52-25.87-9.56-6.59-5.04-11.83-10.87-15.64-19.8C-2.66,45.51,15.43,14.6,42.22,8.17c29.17-7.02,58.26,11.63,61.35,42.07.44.16,4.64,1.27,4.96,1.31-1.19-6.98-.75-8.53-3.57-15.87C95.48,10.99,68.97-2.74,42.18,3.25c-8.1,1.83-16.71,6.03-22.74,11.43-1.9,1.71-3.29,3.02-5,4.96-5.64,6.35-9.64,13.93-11.83,22.54-4.72,18.73,1.15,38.14,14.25,51.07,8.61,8.49,19.72,13.89,33.89,15.28h0l-.08-.04Z"/>
      <path class="st0" d="M113.61,74.84c-.2,7.14-7.54,13.65-15.2,13.14-6.07-.4-3.41-2.06-10.91,5.48l-17.06,17.1c-6.83,6.67-12.94-2.7-9.05-7.06l22.86-22.9c1.35-1.39.83-2.42.52-4.44-.28-1.71-.2-3.65.12-5.4.6-3.17,2.26-5.79,4.01-7.38,1.43-1.31,5.12-3.61,7.98-3.49-5.83,6.43-5.56,2.66-3.49,13.25.36,1.9.48,3.77,1.83,4.68.95.63,8.81,2.14,10.6,2.42,2.42.4,3.29-1.11,4.33-2.14.83-.83,2.54-2.82,3.45-3.29l.04.04ZM96.15,54.4c-10.28,1.51-17.06,8.97-16.99,19.56.04,5.56,2.02,2.26-6.67,10.99-3.1,3.1-6.03,6.07-9.13,9.13-3.02,2.98-6.94,6.23-7.98,10.08-2.94,11.11,10.16,18.81,18.41,10.48,3.06-3.1,6.03-6.07,9.09-9.17,3.02-3.06,5.99-5.99,9.05-9.05,4.09-4.09,2.66-3.33,5.56-3.06,12.42,1.07,23.41-9.45,21.27-23.49-.2-1.43-.32-2.5-1.31-3.21-2.58-1.9-5.08,1.9-7.9,4.72-4.48,4.44-2.3,3.85-8.81,2.54-2.78-.56-1.75.44-3.14-6.07-.36-1.59.6-1.94,1.47-2.82,1.19-1.19,6.15-5.99,6.55-7.18,1.51-4.48-7.26-3.81-9.52-3.45h.04Z"/>
    </g>
    <rect class="st1" x=".47" y=".47" width="119.05" height="119.05"/>
  </g>
</svg>